<svg xmlns="http://www.w3.org/2000/svg" width="24" height="24" viewBox="0 0 24 24" fill="none" stroke="currentColor" stroke-width="2" stroke-linecap="round" stroke-linejoin="round" class="lucide lucide-brain-circuit"><path d="M12 5a3 3 0 1 0-5.997.125M12 5a3 3 0 1 1 5.997.125M12 5a3 3 0 1 1 0-5.75M12 5a3 3 0 1 0 0 5.75m0 0a3 3 0 1 0 5.997.125M12 10.75a3 3 0 1 1-5.997.125m0 0A5.98 5.98 0 0 0 9.25 4m-3.25 6.75a3 3 0 1 1-5.75 0m5.75 0a3 3 0 1 0 5.75 0M3.5 10.75A5.98 5.98 0 0 1 7 14.5m8.5.125a3 3 0 1 0 5.75 0m-5.75 0a3 3 0 1 1 5.75 0m0 0a3 3 0 1 1 0 5.75M17.5 14.625a3 3 0 1 0 0-5.75M14.75 4A5.98 5.98 0 0 1 17.5 7m-3.5 13.5a3 3 0 1 0-5.997-.125M14 20.5a3 3 0 1 1 5.997-.125M14 20.5a3 3 0 1 1 0 2.5m0-2.5a3 3 0 1 0 0-5.75m0 5.75a3 3 0 1 0 5.997-.125m-11.747-5.625a3 3 0 1 1 5.75 0m-5.75 0a3 3 0 1 0-5.75 0m11.75 0a3 3 0 1 0 0 5.75m-6-11.5a3 3 0 1 0 0-5.75m-6 5.75a3 3 0 1 0-5.75 0m11.75 0a3 3 0 1 1-5.75 0"/><path d="M12 13v1M7.5 8.5v1M7.5 14.5v1M16.5 8.5v1M16.5 14.5v1"/></svg>