<svg xmlns="http://www.w3.org/2000/svg" width="24" height="24" viewBox="0 0 24 24" fill="none" stroke="currentColor" stroke-width="2" stroke-linecap="round" stroke-linejoin="round" class="lucide lucide-map"><path d="M14.106 5.553a2 2 0 0 0 1.788 0l3.659-1.83A1 1 0 0 1 21 4.616v12.764a1 1 0 0 1-1.451.894l-4.549-2.275a2 2 0 0 0-1.788 0l-4 2a2 2 0 0 1-1.788 0l-3.659-1.83A1 1 0 0 1 3 18.384V5.62a1 1 0 0 1 1.451-.894l4.549 2.275a2 2 0 0 0 1.788 0z"/><path d="M3 5.8V18.2"/><path d="M15 6.3v12.5"/></svg>